<svg xmlns="http://www.w3.org/2000/svg" viewBox="0 0 64 64" role="img" aria-label="Mouse icon">
  <defs>
    <linearGradient id="mouseBody" x1="0" y1="0" x2="1" y2="1">
      <stop offset="0%" stop-color="#7dd3fc" />
      <stop offset="100%" stop-color="#2563eb" />
    </linearGradient>
    <linearGradient id="mouseGlow" x1="0" y1="0" x2="0" y2="1">
      <stop offset="0%" stop-color="#eff6ff" stop-opacity="0.95" />
      <stop offset="100%" stop-color="#bfdbfe" stop-opacity="0.8" />
    </linearGradient>
  </defs>
  <rect width="64" height="64" rx="18" fill="#0f172a" />
  <path
    d="M32 10c-10.493 0-19 8.507-19 19v8c0 13.807 7.611 20 19 20s19-6.193 19-20v-8c0-10.493-8.507-19-19-19Z"
    fill="url(#mouseBody)"
  />
  <path
    d="M32 14c-8.284 0-15 6.716-15 15v2h30v-2c0-8.284-6.716-15-15-15Z"
    fill="url(#mouseGlow)"
  />
  <path
    d="M32 14v17"
    stroke="#0f172a"
    stroke-linecap="round"
    stroke-width="4"
  />
  <rect x="27.5" y="18" width="9" height="11" rx="4.5" fill="#0f172a" opacity="0.9" />
  <circle cx="32" cy="44" r="3.5" fill="#dbeafe" opacity="0.95" />
</svg>
